<?xml version="1.0" encoding="iso-8859-1"?>
<!-- Generator: Adobe Illustrator 19.0.0, SVG Export Plug-In . SVG Version: 6.00 Build 0)  -->
<svg version="1.1" id="Capa_1" xmlns="http://www.w3.org/2000/svg" xmlns:xlink="http://www.w3.org/1999/xlink" x="0px" y="0px"
	 viewBox="0 0 512.001 512.001" style="enable-background:new 0 0 512.001 512.001;" xml:space="preserve">
<path style="fill:#9CE8FF;" d="M500.668,363.64v-16.718c0-2.918-2.388-5.306-5.305-5.306h-67.1c-2.918,0-5.305,2.388-5.305,5.306
	v16.718H500.668z"/>
<g>
	<path style="fill:#FFAF68;" d="M411.625,428v25.286c0,2.918,2.388,5.306,5.306,5.306h9.556c2.918,0,5.305-2.388,5.305-5.306V428
		H411.625z"/>
	<path style="fill:#FFAF68;" d="M491.834,453.286c0,2.918,2.387,5.306,5.305,5.306h9.557c2.917,0,5.305-2.388,5.305-5.306V428
		h-20.166v25.286H491.834z"/>
</g>
<rect x="411.62" y="405.36" style="fill:#CB7C52;" width="100.37" height="25.899"/>
<path style="fill:#AB5436;" d="M506.603,360.389h-89.582c-2.968,0-5.397,2.429-5.397,5.399v42.961H512v-42.961
	C512,362.817,509.572,360.389,506.603,360.389z"/>
<path style="fill:#CB7C52;" d="M472.066,395.879H451.56c-4.267,0-7.725-3.458-7.725-7.725c0-4.268,3.458-7.725,7.725-7.725h20.506
	c4.268,0,7.725,3.457,7.725,7.725C479.791,392.421,476.334,395.879,472.066,395.879z"/>
<path style="fill:#08375E;" d="M49.361,437.732V221.416c0-4.143-3.357-7.5-7.5-7.5s-7.5,3.357-7.5,7.5v216.316H49.361z"/>
<path style="fill:#63C3EA;" d="M77,434.398H13.001c-2.833,0-5.151,2.318-5.151,5.15v13.967c0,2.832,2.318,5.15,5.151,5.15H77
	V434.398z"/>
<g style="opacity:0.1;">
	<path style="fill:#231F20;" d="M30.391,453.516v-13.967c0-2.832,2.317-5.15,5.15-5.15h-22.54c-2.833,0-5.151,2.318-5.151,5.15
		v13.967c0,2.832,2.318,5.15,5.151,5.15h22.54C32.708,458.666,30.391,456.348,30.391,453.516z"/>
</g>
<path style="fill:#FF9F3D;" d="M83.723,230.091c0,2.833-2.318,5.15-5.151,5.15H5.15c-2.832,0-5.15-2.317-5.15-5.15v-93.507
	c0-2.834,2.318-5.151,5.15-5.151h73.421c2.833,0,5.151,2.317,5.151,5.151L83.723,230.091L83.723,230.091z"/>
<path style="opacity:0.1;fill:#231F20;enable-background:new    ;" d="M22.148,230.091v-93.507c0-2.834,2.318-5.151,5.151-5.151
	H5.15c-2.832,0-5.15,2.317-5.15,5.151v93.507c0,2.833,2.318,5.15,5.15,5.15H27.3C24.467,235.241,22.148,232.924,22.148,230.091z"/>
<path style="fill:#FFBB4A;" d="M364.98,268.475H117.321c-5.666,0-10.302,4.636-10.302,10.302v104.222h268.262V278.776
	C375.281,273.11,370.647,268.475,364.98,268.475z"/>
<path style="opacity:0.1;fill:#231F20;enable-background:new    ;" d="M135.302,268.475h-17.981
	c-5.666,0-10.302,4.636-10.302,10.302v104.222H125V278.776C125,273.11,129.636,268.475,135.302,268.475z"/>
<rect x="233.65" y="268.48" style="fill:#FF9F3D;" width="15" height="114.52"/>
<g>
	<path style="fill:#3EAF91;" d="M204.474,377.847c0,2.833-2.317,5.151-5.15,5.151h-46.285c-2.833,0-5.15-2.318-5.15-5.151v-46.322
		c0-2.832,2.317-5.15,5.15-5.15h46.285c2.833,0,5.15,2.318,5.15,5.15V377.847z"/>
	<path style="fill:#3EAF91;" d="M338.604,377.847c0,2.833-2.317,5.151-5.15,5.151h-46.285c-2.833,0-5.151-2.318-5.151-5.151v-46.322
		c0-2.832,2.318-5.15,5.151-5.15h46.285c2.833,0,5.15,2.318,5.15,5.15V377.847z"/>
</g>
<rect x="107.02" y="379.19" style="fill:#FF9F3D;" width="268.26" height="53"/>
<path style="fill:#FCC96C;" d="M105.971,340.463H80.822c-5.764,0-10.48,4.718-10.48,10.484v102.4c0,2.884,2.357,5.244,5.239,5.244
	h35.629c2.882,0,5.24-2.36,5.24-5.244v-102.4C116.451,345.181,111.734,340.463,105.971,340.463z"/>
<path style="opacity:0.1;fill:#231F20;enable-background:new    ;" d="M92.452,453.348v-102.4c0-5.767,4.715-10.484,10.479-10.484
	H80.822c-5.764,0-10.48,4.718-10.48,10.484v102.4c0,2.884,2.357,5.244,5.239,5.244H97.69
	C94.809,458.592,92.452,456.231,92.452,453.348z"/>
<path style="fill:#FCC96C;" d="M401.478,340.463h-25.149c-5.764,0-10.479,4.718-10.479,10.484v102.4c0,2.884,2.358,5.244,5.24,5.244
	h35.629c2.881,0,5.239-2.36,5.239-5.244v-102.4C411.958,345.181,407.242,340.463,401.478,340.463z"/>
<path style="opacity:0.1;fill:#231F20;enable-background:new    ;" d="M382.713,453.348v-102.4c0-5.767,4.715-10.484,10.479-10.484
	H376.33c-5.764,0-10.479,4.718-10.479,10.484v102.4c0,2.884,2.358,5.244,5.24,5.244h16.861
	C385.07,458.592,382.713,456.231,382.713,453.348z"/>
<path style="fill:#AB5436;" d="M356.914,77.074H125.387c-3.004,0-5.461,2.459-5.461,5.465V210.4c0,3.006,2.457,5.465,5.461,5.465
	h231.527c3.004,0,5.461-2.459,5.461-5.465V82.539C362.375,79.533,359.918,77.074,356.914,77.074z"/>
<path style="fill:#B1E8FF;" d="M144.768,194.006c-1.65,0-3-1.35-3-3v-89.074c0-1.65,1.35-3,3-3h192.766c1.65,0,3,1.35,3,3v89.074
	c0,1.65-1.35,3-3,3H144.768z"/>
<g>
	<path style="fill:#FFBB4A;" d="M414.482,268.362c-1.203,0-2.264-0.789-2.617-1.95c-4.296-13.955-7.248-16.941-21.045-21.288
		c-1.147-0.361-1.927-1.433-1.927-2.651c0-1.212,0.78-2.287,1.927-2.648c13.797-4.345,16.749-7.329,21.045-21.289
		c0.354-1.157,1.414-1.949,2.617-1.949s2.262,0.792,2.62,1.949c4.298,13.96,7.243,16.944,21.041,21.289
		c1.147,0.361,1.927,1.436,1.927,2.648c0,1.219-0.779,2.29-1.927,2.651c-13.798,4.347-16.743,7.333-21.041,21.288
		C416.744,267.573,415.685,268.362,414.482,268.362z"/>
	<path style="fill:#FFBB4A;" d="M452.241,158.133c-1.331,0-2.505-0.873-2.897-2.16c-4.757-15.455-8.026-18.762-23.307-23.576
		c-1.27-0.399-2.133-1.585-2.133-2.934c0-1.342,0.863-2.533,2.133-2.933c15.28-4.811,18.55-8.117,23.307-23.577
		c0.392-1.282,1.565-2.158,2.897-2.158c1.334,0,2.505,0.876,2.901,2.158c4.762,15.46,8.025,18.766,23.305,23.577
		c1.27,0.399,2.133,1.591,2.133,2.933c0,1.349-0.863,2.534-2.133,2.934c-15.279,4.814-18.543,8.121-23.305,23.576
		C454.746,157.26,453.575,158.133,452.241,158.133z"/>
	<path style="fill:#FFBB4A;" d="M71.598,96.179c-0.995,0-1.872-0.653-2.166-1.613c-3.555-11.55-5.997-14.021-17.416-17.618
		c-0.947-0.297-1.593-1.185-1.593-2.193c0-1.002,0.646-1.893,1.593-2.19c11.419-3.596,13.861-6.064,17.416-17.618
		c0.294-0.957,1.171-1.611,2.166-1.611s1.871,0.654,2.168,1.611c3.557,11.554,5.995,14.022,17.412,17.618
		c0.949,0.298,1.593,1.188,1.593,2.19c0,1.009-0.644,1.896-1.593,2.193c-11.417,3.598-13.855,6.068-17.412,17.618
		C73.469,95.525,72.593,96.179,71.598,96.179z"/>
</g>
<path style="fill:#86D5B5;" d="M301.551,144.434l-32.414,49.572h68.395l-32.416-49.572
	C304.136,142.936,302.53,142.936,301.551,144.434z"/>
<path style="fill:#3EAF91;" d="M238.977,120.124l-48.313,73.882h100.19l-48.312-73.882
	C241.561,118.625,239.957,118.625,238.977,120.124z"/>
<path style="fill:#86D5B5;" d="M177.907,143.329l-33.14,50.677h69.842l-33.138-50.677
	C180.491,141.83,178.888,141.83,177.907,143.329z"/>
<path style="opacity:0.1;fill:#231F20;enable-background:new    ;" d="M144.768,98.932c-1.65,0-3,1.35-3,3v89.074c0,1.65,1.35,3,3,3
	h14.396V98.932H144.768z"/>
<path style="fill:#63C3EA;" d="M500.668,336.374c0,2.918-2.388,5.307-5.305,5.307h-67.1c-2.918,0-5.305-2.389-5.305-5.307v-12.068
	c0-2.919,2.387-5.306,5.305-5.306h67.1c2.917,0,5.305,2.387,5.305,5.306V336.374z"/>
<g>
</g>
<g>
</g>
<g>
</g>
<g>
</g>
<g>
</g>
<g>
</g>
<g>
</g>
<g>
</g>
<g>
</g>
<g>
</g>
<g>
</g>
<g>
</g>
<g>
</g>
<g>
</g>
<g>
</g>
</svg>
